PathFileType	4	(X/Y/Z)	./resultDataOpenSim/trcMotMarkerGrf/sub10/qtm-05-03.trc
DataRate	CameraRate	NumFrames	NumMarkers	Units	OrigDataRate	OrigDataStartFrame	OrigNumFrames
250.000000	250.000000	13	24	m	250.000000	321	513
Frame#	Time	L.Toe.Tip			R.Toe.Tip			L.Ankle.Lat			R.Ankle.Lat			L.Ankle.Med			R.Ankle.Med			L.Heel			R.Heel			L.Knee.Lat			R.Knee.Lat			L.Knee.Med			R.Knee.Med			L.Thigh.Upper			R.Thigh.Upper			L.ASIS			R.ASIS			V.Sacral			L.Acromium			R.Acromium			C7			L.Elbow			R.Elbow			L.Wrist.Lat			R.Wrist.Lat
		X1	Y1	Z1	X2	Y2	Z2	X3	Y3	Z3	X4	Y4	Z4	X5	Y5	Z5	X6	Y6	Z6	X7	Y7	Z7	X8	Y8	Z8	X9	Y9	Z9	X10	Y10	Z10	X11	Y11	Z11	X12	Y12	Z12	X13	Y13	Z13	X14	Y14	Z14	X15	Y15	Z15	X16	Y16	Z16	X17	Y17	Z17	X18	Y18	Z18	X19	Y19	Z19	X20	Y20	Z20	X21	Y21	Z21	X22	Y22	Z22	X23	Y23	Z23	X24	Y24	Z24

321	1.28	0.053474291	-0.058126093	-0.12851781	0.91156272	0.041501013	-0.076163289	-0.015039885	0.050401225	-0.19187129	0.77213267	0.054191992	-0.028059819	0.0097198585	0.068500516	-0.11468633	0.78596108	0.083380785	-0.1117048	-0.072811201	0.078726058	-0.14821275	0.71932248	0.029599212	-0.070961406	0.2207195	0.36383315	-0.22849714	0.75649972	0.44950724	0.0073152759	0.22953324	0.33263373	-0.1082945	0.75573337	0.46243614	-0.12127629	0.38045231	0.71303138	-0.28310166	0.51729298	0.76823104	0.08312246	0.4807972	0.80601428	-0.24822378	0.55807727	0.84148934	-0.017564583	0.33049628	0.85305288	-0.073436015	0.53017756	1.3082779	-0.26085602	0.49802405	1.2938644	0.051859709	0.43164483	1.3295724	-0.11610252	0.59094308	0.97683755	-0.36836671	0.27984115	1.0292565	0.057111028	0.82144044	0.96015907	-0.26682022	0.22796891	0.83284911	0.19160871
322	1.284	0.055157916	-0.058557834	-0.12887211	0.91223674	0.041060585	-0.076407989	-0.0093633562	0.05175083	-0.19316063	0.77273361	0.054219792	-0.028605266	0.015906382	0.069380245	-0.11623325	0.78650327	0.082993694	-0.11233866	-0.066190075	0.082020811	-0.14934353	0.71962043	0.029730704	-0.071151691	0.229175	0.36391384	-0.22924287	0.76215138	0.44932138	0.0065174472	0.23709982	0.33229787	-0.10913626	0.76098366	0.46292006	-0.12182842	0.3885177	0.71248745	-0.28334887	0.52383788	0.76995904	0.082899456	0.48888417	0.8057182	-0.24748752	0.56550015	0.84264533	-0.01703723	0.33778257	0.8543509	-0.074817777	0.53793781	1.3090255	-0.26008712	0.50511312	1.2947679	0.052342279	0.43892305	1.3303271	-0.11551042	0.59710421	0.97747951	-0.3680823	0.28826273	1.0293864	0.056749518	0.82751303	0.95917291	-0.2663194	0.23573538	0.83304957	0.19157156
323	1.288	0.056914462	-0.058838334	-0.12922451	0.91282686	0.040712024	-0.076575268	-0.0034792063	0.053079459	-0.19443648	0.77322667	0.054255418	-0.029065545	0.022218032	0.070231651	-0.11772594	0.78698924	0.082608167	-0.11291657	-0.05941832	0.085294988	-0.15052113	0.71987719	0.029820204	-0.071332303	0.23806374	0.3638928	-0.2300045	0.76764817	0.44900508	0.0056683661	0.24492992	0.33185171	-0.11006457	0.76612983	0.46322045	-0.12245553	0.39659669	0.7119343	-0.28357469	0.53048861	0.77177747	0.082672187	0.49689972	0.80546201	-0.2467223	0.57287117	0.84383071	-0.016522577	0.34475884	0.85578627	-0.075956823	0.54564696	1.3097119	-0.25936526	0.51209827	1.2956844	0.052807092	0.4461217	1.3310926	-0.11500526	0.60322624	0.97813681	-0.3678832	0.29662886	1.0295114	0.056583009	0.83348831	0.9580541	-0.26582282	0.24358158	0.83318578	0.19158588
324	1.292	0.058748213	-0.05888175	-0.12960747	0.91333797	0.040448934	-0.076720324	0.00246603	0.0544793	-0.19578249	0.77363758	0.054294498	-0.029434656	0.028585982	0.071120951	-0.11917206	0.7874313	0.08223965	-0.11342698	-0.05257953	0.088603534	-0.15172217	0.72009165	0.029877096	-0.071487766	0.2473352	0.36378414	-0.23078143	0.77300093	0.44859397	0.0047820474	0.25301039	0.33128494	-0.11110939	0.77117178	0.46335542	-0.12316017	0.40466017	0.71135684	-0.28377393	0.53723002	0.77366814	0.082455485	0.50484038	0.80525959	-0.24593597	0.58017051	0.84503806	-0.01604236	0.35159654	0.85731851	-0.07698361	0.55327551	1.3103546	-0.25868803	0.51898102	1.2966201	0.053261699	0.45322562	1.3318661	-0.11457032	0.60930474	0.97880731	-0.36775934	0.30495973	1.0296317	0.056734369	0.83939506	0.95681843	-0.2653603	0.25149767	0.83325693	0.19164423
325	1.296	0.060638064	-0.05864047	-0.1300919	0.91376045	0.040256085	-0.076878083	0.0083885275	0.056043065	-0.19721308	0.77399402	0.054322622	-0.029731668	0.034947297	0.072129258	-0.12057729	0.7878196	0.081898439	-0.11386497	-0.045712137	0.092028498	-0.15298172	0.7202666	0.029917033	-0.07161152	0.25694344	0.36360128	-0.23157429	0.77822029	0.44810721	0.003871165	0.26132973	0.33059235	-0.11225242	0.77611662	0.46334185	-0.12392552	0.41271231	0.71076387	-0.28396264	0.54404727	0.77560091	0.082264454	0.51270449	0.80512592	-0.24513416	0.58737724	0.8462497	-0.015618635	0.35856859	0.85888312	-0.078063808	0.56078342	1.31098	-0.25804695	0.52576414	1.2975825	0.053713952	0.46022925	1.3326362	-0.11418473	0.6153365	0.97948754	-0.3676821	0.31329409	1.0297175	0.057104209	0.84525495	0.95545404	-0.26497034	0.25951652	0.83325744	0.19174037
326	1.3	0.062558243	-0.058100576	-0.13075849	0.91408764	0.04011704	-0.07703614	0.014294309	0.057836255	-0.19867809	0.77430405	0.054329967	-0.029970007	0.041262629	0.07334486	-0.12193843	0.78814681	0.081585969	-0.11422853	-0.038798063	0.095649642	-0.15437515	0.72041127	0.029953274	-0.071704657	0.26684733	0.36335715	-0.23238371	0.78331856	0.44755276	0.0029468369	0.26988685	0.32977991	-0.11344679	0.78097037	0.46319679	-0.12473296	0.42078058	0.71019346	-0.28415549	0.55092686	0.77754246	0.082107312	0.52049008	0.80507376	-0.24432473	0.59447516	0.84744713	-0.015269415	0.36581058	0.86040274	-0.079209986	0.56816205	1.3116075	-0.25743918	0.53244439	1.2985708	0.054162838	0.46713542	1.3333933	-0.11383317	0.6213181	0.98017359	-0.36762284	0.32163398	1.0297275	0.057487096	0.85107676	0.95394711	-0.26467975	0.26769088	0.83317998	0.19187451
327	1.304	0.064476181	-0.05726962	-0.13167886	0.91433177	0.040014887	-0.077163039	0.020227343	0.059898152	-0.20012117	0.7745579	0.054319695	-0.030152967	0.047528693	0.074848825	-0.12324798	0.78842031	0.081300885	-0.11452224	-0.031786867	0.099506282	-0.15594807	0.72053266	0.02998839	-0.071770023	0.27700676	0.36306475	-0.23320994	0.78830695	0.44693942	0.002017944	0.27869423	0.32886489	-0.11465913	0.78573028	0.46293855	-0.12556801	0.42887218	0.70969994	-0.28433828	0.55785179	0.77946396	0.081981889	0.52819274	0.80511173	-0.24352204	0.60147134	0.84863731	-0.014997126	0.37321294	0.8618296	-0.080285232	0.57543483	1.3122475	-0.25686718	0.53901752	1.2995789	0.054602022	0.47394068	1.3341429	-0.11350553	0.62724509	0.98086538	-0.36757189	0.32993781	1.0296535	0.057781132	0.85684584	0.95233319	-0.26447411	0.27603426	0.8330189	0.19204588
328	1.308	0.066376779	-0.056161711	-0.13284917	0.91451626	0.039934177	-0.077245875	0.026225356	0.0622561	-0.20150258	0.77474749	0.054304492	-0.030283628	0.053775198	0.076693354	-0.1244994	0.78865271	0.081045881	-0.11475604	-0.024635949	0.10358093	-0.15765752	0.72063007	0.030018045	-0.071809982	0.28738019	0.36273738	-0.2340529	0.79319186	0.44628406	0.0010882798	0.28776044	0.32787369	-0.11587778	0.79039141	0.46258707	-0.12641723	0.43695282	0.70932986	-0.28449325	0.56480439	0.78134059	0.081888178	0.53580681	0.80525046	-0.24274208	0.60840469	0.84986344	-0.014776423	0.38057424	0.86317733	-0.081182653	0.58262449	1.3129113	-0.25633686	0.54548805	1.3006047	0.055028109	0.48063329	1.3349003	-0.1132004	0.63311453	0.98157274	-0.36753804	0.33814983	1.0295249	0.058017083	0.86253147	0.95068624	-0.26430866	0.28452495	0.83277392	0.19225088
329	1.312	0.068340747	-0.054767278	-0.13408732	0.91465765	0.039865889	-0.077298076	0.032315026	0.064917562	-0.20279693	0.77488211	0.054292912	-0.030372757	0.060051641	0.07888428	-0.12568702	0.78884962	0.08082614	-0.11494103	-0.017337447	0.10781781	-0.1593733	0.72070083	0.030039912	-0.071828881	0.29792535	0.36238841	-0.23491244	0.7979758	0.4456078	0.00015798512	0.29707286	0.326838	-0.11709807	0.79495278	0.46216222	-0.12726893	0.4449821	0.70911325	-0.28463871	0.57177572	0.78314997	0.081834357	0.54332669	0.80550869	-0.24199557	0.61531916	0.85116322	-0.014569744	0.38777224	0.86451637	-0.081903835	0.58973911	1.3136122	-0.25585707	0.55186548	1.3016536	0.055441482	0.48720673	1.3356769	-0.11292613	0.63891865	0.98231044	-0.36752406	0.34624524	1.0293749	0.058252152	0.86810732	0.94904555	-0.26415556	0.29314347	0.83245172	0.19248623
330	1.316	0.070514418	-0.053056779	-0.13513618	0.91476331	0.039807534	-0.07734132	0.038521362	0.067855415	-0.20398955	0.7749839	0.054283936	-0.030436739	0.066413719	0.081376526	-0.12680381	0.7890108	0.08064157	-0.11508992	-0.0099145479	0.11215794	-0.16094537	0.72074748	0.030056558	-0.071834285	0.30860063	0.362031	-0.23578842	0.80265913	0.44492657	-0.00077227124	0.30660885	0.32579091	-0.11831349	0.79941259	0.46167788	-0.12811776	0.45295008	0.70907055	-0.2848032	0.57876866	0.78487213	0.081826289	0.55074851	0.80590807	-0.2412899	0.62222274	0.85251396	-0.01436844	0.39477589	0.86591845	-0.082489404	0.59677987	1.3143637	-0.25543616	0.55815296	1.3027335	0.05584209	0.49366414	1.3364801	-0.11269414	0.64464109	0.98308103	-0.36750348	0.35423876	1.0292292	0.058531475	0.87355374	0.94739243	-0.2640257	0.30188174	0.83206167	0.19274882
331	1.32	0.072942327	-0.051067421	-0.13596183	0.91483977	0.039758646	-0.07738739	0.044864908	0.071021905	-0.20507709	0.77507239	0.054274674	-0.03049007	0.07290654	0.084092365	-0.12783677	0.78914015	0.080484445	-0.11521629	-0.0023992356	0.11656149	-0.16228989	0.72077758	0.030072305	-0.071834674	0.31936524	0.36167811	-0.2366808	0.80724192	0.44424669	-0.0016978936	0.3163571	0.3247703	-0.11951128	0.80376376	0.46113983	-0.1289658	0.46086816	0.7092127	-0.28498247	0.58579453	0.78649038	0.081861414	0.55806941	0.8064645	-0.24063502	0.62908825	0.85384804	-0.014201462	0.40160009	0.86737555	-0.082964508	0.60374931	1.3151801	-0.25507881	0.56435138	1.3038482	0.05622999	0.50001325	1.3373176	-0.11251011	0.65026836	0.98387222	-0.36743152	0.36215589	1.0291152	0.058904371	0.87885245	0.94568026	-0.26394693	0.31073985	0.83161059	0.19303458
332	1.324	0.075545198	-0.048958426	-0.13679805	0.91489405	0.039716656	-0.077438104	0.051348721	0.074381147	-0.20607887	0.77515691	0.054266316	-0.030541628	0.079548963	0.086961507	-0.12876668	0.78925011	0.080345247	-0.11533156	0.0051850026	0.12101067	-0.16341187	0.72079885	0.030090197	-0.071836893	0.33017876	0.36134261	-0.23758955	0.81172107	0.44356976	-0.0026101004	0.32632165	0.32382618	-0.12066897	0.8079968	0.46055091	-0.1298169	0.46874134	0.70953653	-0.28514986	0.59286523	0.7879925	0.081932427	0.56528344	0.80718935	-0.24004382	0.63589096	0.8551159	-0.014097724	0.40828205	0.86880569	-0.083336104	0.61065044	1.3160743	-0.25478318	0.57046879	1.3049971	0.056607244	0.5062691	1.3382002	-0.11237132	0.65579742	0.98467292	-0.36728167	0.37000382	1.0290449	0.059373396	0.88398687	0.94386546	-0.26393369	0.31972375	0.83110212	0.19333812
333	1.328	0.078282202	-0.046908365	-0.13788069	0.91493195	0.039676832	-0.077493286	0.057953288	0.077924827	-0.20704462	0.77523935	0.054262783	-0.030596296	0.086331066	0.089950278	-0.12958048	0.78935587	0.080218524	-0.11544451	0.012829159	0.12550451	-0.16434872	0.72081711	0.030112778	-0.071846061	0.34100067	0.36103741	-0.23851468	0.81608479	0.44290156	-0.0034999742	0.33650761	0.32301551	-0.12175825	0.81210325	0.45991338	-0.13067378	0.47655941	0.71003016	-0.28528635	0.59997268	0.78937062	0.082025751	0.57238209	0.80809633	-0.23953027	0.6426189	0.85630492	-0.014064729	0.41486788	0.87014987	-0.083605839	0.61748306	1.3170539	-0.25453952	0.57651526	1.3061834	0.056974891	0.51245715	1.3391478	-0.11226914	0.66122978	0.98548241	-0.36706128	0.37776406	1.0289885	0.05985855	0.88894532	0.94194731	-0.26397951	0.32884352	0.83054179	0.19365593
